# xmcd
#
# Track frame offsets:
#	150
#	74760
#	82867
#	149075
#	234380
#
# Disc length: 3361 seconds
#
# Revision: 0
# Processed by: cddbd v1.5.2PL0 Copyright (c) Steve Scherf et al.
# Submitted via: EasyCDDAExtractor 16.0.6.1
#
DISCID=440d1f05
DTITLE=Βυζ. χορωδία υπό Κώστα Ζορμπά - Βυζαντινή μουσική 07-Ακάθιστος Ύμνος 2
DYEAR=1989
DGENRE=Βυζ. Εκκλησιαστική
TTITLE0=Μαυροειδής Γεώργιος π.-Βυζ. χορ. υπό Κώστα Ζορμπά - Γ' Στάσις [Ν-Ξ-Ο-Π
TTITLE0=Ρ-Σ]
TTITLE1=Βυζ. χορωδία υπό Κώστα Ζορμπά - Τη Υπερμάχω [κοντάκιον, ήχ. πλ. δ']
TTITLE2=Βυζ. χορωδία υπό Κώστα Ζορμπά - Ο Κανών [ωδές ζ'-θ', ειρμοί κ τροπάρια
TTITLE2=]
TTITLE3=Μαυροειδής Γεώργιος π.-Βυζ. χορ. υπό Κώστα Ζορμπά - Δ' Στάσις [Τ-Υ-Φ-Χ
TTITLE3=Ψ-Ω]
TTITLE4=Βυζ. χορωδία υπό Κώστα Ζορμπά - Την ωραιότητα [θοτόκιον, ήχος γ']
EXTD=
EXTT0=
EXTT1=
EXTT2=
EXTT3=
EXTT4=
PLAYORDER=
